# xmcd
#
# Track frame offsets: 
#        150
#        18252
#        34106
#        49499
#        67703
#        86520
#        106852
#        124514
#        142518
#        163296
#        178452
#        193309
#        210487
#
# Disc length: 2982 seconds
#
# Revision: 0
# Processed by: cddbd v1.5.2PL0 Copyright (c) Steve Scherf et al.
# Submitted via: ExactAudioCopy v1.0b3
#
DISCID=ae0ba40d
DTITLE=Colin James - Fifteen
DYEAR=2012
DGENRE=Blues
TTITLE0=Sweets Gone Sour
TTITLE1=I'm Diggin'
TTITLE2=Fool For You
TTITLE3=Shed A Little Light
TTITLE4=I Need You Bad
TTITLE5=Love For Life
TTITLE6=Sneakin' Sally Through The Alley
TTITLE7=Jealous Guy
TTITLE8=Finally Wrote A Song For You
TTITLE9=No Time To Get There
TTITLE10=Stone Faith
TTITLE11=Oh Well
TTITLE12=Shoulder To Cry On
EXTD=
EXTT0=
EXTT1=
EXTT2=
EXTT3=
EXTT4=
EXTT5=
EXTT6=
EXTT7=
EXTT8=
EXTT9=
EXTT10=
EXTT11=
EXTT12=
PLAYORDER=
